<svg width="968" height="684" viewBox="0 0 968 684" fill="none" xmlns="http://www.w3.org/2000/svg">
<path d="M229.686 113.86H171.566V171.98H229.686V113.86Z" fill="url(#paint0_linear_46_20995)" fill-opacity="0.03"/>
<path d="M229.023 454.801H170.742V513.081H229.023V454.801Z" fill="url(#paint1_linear_46_20995)" fill-opacity="0.03"/>
<path d="M797.258 170.683H738.978V228.964H797.258V170.683Z" fill="url(#paint2_linear_46_20995)" fill-opacity="0.03"/>
<path d="M57.8235 0.941162H1V57.7647M57.8235 0.941162V57.7647M57.8235 0.941162H114.647M57.8235 57.7647H1M57.8235 57.7647H114.647M57.8235 57.7647V114.588M1 57.7647V114.588M114.647 0.941162V57.7647M114.647 0.941162H171.471M114.647 57.7647H171.471M114.647 57.7647V114.588M171.471 0.941162V57.7647M171.471 0.941162H228.294M171.471 57.7647H228.294M171.471 57.7647V114.588M228.294 0.941162V57.7647M228.294 0.941162H285.118M228.294 57.7647H285.118M228.294 57.7647V114.588M285.118 0.941162V57.7647M285.118 0.941162H341.941M285.118 57.7647H341.941M285.118 57.7647V114.588M341.941 0.941162V57.7647M341.941 0.941162H398.765M341.941 57.7647H398.765M341.941 57.7647V114.588M398.765 0.941162V57.7647M398.765 0.941162H455.588M398.765 57.7647H455.588M398.765 57.7647V114.588M455.588 0.941162V57.7647M455.588 0.941162H512.412M455.588 57.7647H512.412M455.588 57.7647V114.588M512.412 0.941162V57.7647M512.412 0.941162H569.235M512.412 57.7647H569.235M512.412 57.7647V114.588M569.235 0.941162V57.7647M569.235 0.941162H626.059M569.235 57.7647H626.059M569.235 57.7647V114.588M626.059 0.941162V57.7647M626.059 0.941162H682.882M626.059 57.7647H682.882M626.059 57.7647V114.588M682.882 0.941162V57.7647M682.882 0.941162H739.706M682.882 57.7647H739.706M682.882 57.7647V114.588M739.706 0.941162V57.7647M739.706 0.941162H796.529M739.706 57.7647H796.529M739.706 57.7647V114.588M796.529 0.941162V57.7647M796.529 0.941162H853.353M796.529 57.7647H853.353M796.529 57.7647V114.588M853.353 0.941162V57.7647M853.353 0.941162H910.176M853.353 57.7647H910.176M853.353 57.7647V114.588M910.176 0.941162V57.7647M910.176 0.941162H967V57.7647M910.176 57.7647H967M910.176 57.7647V114.588M967 57.7647V114.588M57.8235 114.588H1M57.8235 114.588H114.647M57.8235 114.588V171.412M1 114.588V171.412M114.647 114.588H171.471M114.647 114.588V171.412M171.471 114.588H228.294M171.471 114.588V171.412M228.294 114.588H285.118M228.294 114.588V171.412M285.118 114.588H341.941M285.118 114.588V171.412M341.941 114.588H398.765M341.941 114.588V171.412M398.765 114.588H455.588M398.765 114.588V171.412M455.588 114.588H512.412M455.588 114.588V171.412M512.412 114.588H569.235M512.412 114.588V171.412M569.235 114.588H626.059M569.235 114.588V171.412M626.059 114.588H682.882M626.059 114.588V171.412M682.882 114.588H739.706M682.882 114.588V171.412M739.706 114.588H796.529M739.706 114.588V171.412M796.529 114.588H853.353M796.529 114.588V171.412M853.353 114.588H910.176M853.353 114.588V171.412M910.176 114.588H967M910.176 114.588V171.412M967 114.588V171.412M57.8235 171.412H1M57.8235 171.412H114.647M57.8235 171.412V228.235M1 171.412V228.235M114.647 171.412H171.471M114.647 171.412V228.235M171.471 171.412H228.294M171.471 171.412V228.235M228.294 171.412H285.118M228.294 171.412V228.235M285.118 171.412H341.941M285.118 171.412V228.235M341.941 171.412H398.765M341.941 171.412V228.235M398.765 171.412H455.588M398.765 171.412V228.235M455.588 171.412H512.412M455.588 171.412V228.235M512.412 171.412H569.235M512.412 171.412V228.235M569.235 171.412H626.059M569.235 171.412V228.235M626.059 171.412H682.882M626.059 171.412V228.235M682.882 171.412H739.706M682.882 171.412V228.235M739.706 171.412H796.529M739.706 171.412V228.235M796.529 171.412H853.353M796.529 171.412V228.235M853.353 171.412H910.176M853.353 171.412V228.235M910.176 171.412H967M910.176 171.412V228.235M967 171.412V228.235M57.8235 228.235H1M57.8235 228.235H114.647M57.8235 228.235V285.059M1 228.235V285.059M114.647 228.235H171.471M114.647 228.235V285.059M171.471 228.235H228.294M171.471 228.235V285.059M228.294 228.235H285.118M228.294 228.235V285.059M285.118 228.235H341.941M285.118 228.235V285.059M341.941 228.235H398.765M341.941 228.235V285.059M398.765 228.235H455.588M398.765 228.235V285.059M455.588 228.235H512.412M455.588 228.235V285.059M512.412 228.235H569.235M512.412 228.235V285.059M569.235 228.235H626.059M569.235 228.235V285.059M626.059 228.235H682.882M626.059 228.235V285.059M682.882 228.235H739.706M682.882 228.235V285.059M739.706 228.235H796.529M739.706 228.235V285.059M796.529 228.235H853.353M796.529 228.235V285.059M853.353 228.235H910.176M853.353 228.235V285.059M910.176 228.235H967M910.176 228.235V285.059M967 228.235V285.059M57.8235 285.059H1M57.8235 285.059H114.647M57.8235 285.059V341.882M1 285.059V341.882M114.647 285.059H171.471M114.647 285.059V341.882M171.471 285.059H228.294M171.471 285.059V341.882M228.294 285.059H285.118M228.294 285.059V341.882M285.118 285.059H341.941M285.118 285.059V341.882M341.941 285.059H398.765M341.941 285.059V341.882M398.765 285.059H455.588M398.765 285.059V341.882M455.588 285.059H512.412M455.588 285.059V341.882M512.412 285.059H569.235M512.412 285.059V341.882M569.235 285.059H626.059M569.235 285.059V341.882M626.059 285.059H682.882M626.059 285.059V341.882M682.882 285.059H739.706M682.882 285.059V341.882M739.706 285.059H796.529M739.706 285.059V341.882M796.529 285.059H853.353M796.529 285.059V341.882M853.353 285.059H910.176M853.353 285.059V341.882M910.176 285.059H967M910.176 285.059V341.882M967 285.059V341.882M57.8235 341.882H1M57.8235 341.882H114.647M57.8235 341.882V398.706M1 341.882V398.706M114.647 341.882H171.471M114.647 341.882V398.706M171.471 341.882H228.294M171.471 341.882V398.706M228.294 341.882H285.118M228.294 341.882V398.706M285.118 341.882H341.941M285.118 341.882V398.706M341.941 341.882H398.765M341.941 341.882V398.706M398.765 341.882H455.588M398.765 341.882V398.706M455.588 341.882H512.412M455.588 341.882V398.706M512.412 341.882H569.235M512.412 341.882V398.706M569.235 341.882H626.059M569.235 341.882V398.706M626.059 341.882H682.882M626.059 341.882V398.706M682.882 341.882H739.706M682.882 341.882V398.706M739.706 341.882H796.529M739.706 341.882V398.706M796.529 341.882H853.353M796.529 341.882V398.706M853.353 341.882H910.176M853.353 341.882V398.706M910.176 341.882H967M910.176 341.882V398.706M967 341.882V398.706M57.8235 398.706H1M57.8235 398.706H114.647M57.8235 398.706V455.529M1 398.706V455.529M114.647 398.706H171.471M114.647 398.706V455.529M171.471 398.706H228.294M171.471 398.706V455.529M228.294 398.706H285.118M228.294 398.706V455.529M285.118 398.706H341.941M285.118 398.706V455.529M341.941 398.706H398.765M341.941 398.706V455.529M398.765 398.706H455.588M398.765 398.706V455.529M455.588 398.706H512.412M455.588 398.706V455.529M512.412 398.706H569.235M512.412 398.706V455.529M569.235 398.706H626.059M569.235 398.706V455.529M626.059 398.706H682.882M626.059 398.706V455.529M682.882 398.706H739.706M682.882 398.706V455.529M739.706 398.706H796.529M739.706 398.706V455.529M796.529 398.706H853.353M796.529 398.706V455.529M853.353 398.706H910.176M853.353 398.706V455.529M910.176 398.706H967M910.176 398.706V455.529M967 398.706V455.529M57.8235 455.529H1M57.8235 455.529H114.647M57.8235 455.529V512.353M1 455.529V512.353M114.647 455.529H171.471M114.647 455.529V512.353M171.471 455.529H228.294M171.471 455.529V512.353M228.294 455.529H285.118M228.294 455.529V512.353M285.118 455.529H341.941M285.118 455.529V512.353M341.941 455.529H398.765M341.941 455.529V512.353M398.765 455.529H455.588M398.765 455.529V512.353M455.588 455.529H512.412M455.588 455.529V512.353M512.412 455.529H569.235M512.412 455.529V512.353M569.235 455.529H626.059M569.235 455.529V512.353M626.059 455.529H682.882M626.059 455.529V512.353M682.882 455.529H739.706M682.882 455.529V512.353M739.706 455.529H796.529M739.706 455.529V512.353M796.529 455.529H853.353M796.529 455.529V512.353M853.353 455.529H910.176M853.353 455.529V512.353M910.176 455.529H967M910.176 455.529V512.353M967 455.529V512.353M57.8235 512.353H1M57.8235 512.353H114.647M57.8235 512.353V569.176M1 512.353V569.176M114.647 512.353H171.471M114.647 512.353V569.176M171.471 512.353H228.294M171.471 512.353V569.176M228.294 512.353H285.118M228.294 512.353V569.176M285.118 512.353H341.941M285.118 512.353V569.176M341.941 512.353H398.765M341.941 512.353V569.176M398.765 512.353H455.588M398.765 512.353V569.176M455.588 512.353H512.412M455.588 512.353V569.176M512.412 512.353H569.235M512.412 512.353V569.176M569.235 512.353H626.059M569.235 512.353V569.176M626.059 512.353H682.882M626.059 512.353V569.176M682.882 512.353H739.706M682.882 512.353V569.176M739.706 512.353H796.529M739.706 512.353V569.176M796.529 512.353H853.353M796.529 512.353V569.176M853.353 512.353H910.176M853.353 512.353V569.176M910.176 512.353H967M910.176 512.353V569.176M967 512.353V569.176M57.8235 569.176H1M57.8235 569.176H114.647M57.8235 569.176V626M1 569.176V626M114.647 569.176H171.471M114.647 569.176V626M171.471 569.176H228.294M171.471 569.176V626M228.294 569.176H285.118M228.294 569.176V626M285.118 569.176H341.941M285.118 569.176V626M341.941 569.176H398.765M341.941 569.176V626M398.765 569.176H455.588M398.765 569.176V626M455.588 569.176H512.412M455.588 569.176V626M512.412 569.176H569.235M512.412 569.176V626M569.235 569.176H626.059M569.235 569.176V626M626.059 569.176H682.882M626.059 569.176V626M682.882 569.176H739.706M682.882 569.176V626M739.706 569.176H796.529M739.706 569.176V626M796.529 569.176H853.353M796.529 569.176V626M853.353 569.176H910.176M853.353 569.176V626M910.176 569.176H967M910.176 569.176V626M967 569.176V626M57.8235 626H1M57.8235 626H114.647M57.8235 626V682.823M1 626V682.823H57.8235M114.647 626H171.471M114.647 626V682.823M171.471 626H228.294M171.471 626V682.823M228.294 626H285.118M228.294 626V682.823M285.118 626H341.941M285.118 626V682.823M341.941 626H398.765M341.941 626V682.823M398.765 626H455.588M398.765 626V682.823M455.588 626H512.412M455.588 626V682.823M512.412 626H569.235M512.412 626V682.823M569.235 626H626.059M569.235 626V682.823M626.059 626H682.882M626.059 626V682.823M682.882 626H739.706M682.882 626V682.823M739.706 626H796.529M739.706 626V682.823M796.529 626H853.353M796.529 626V682.823M853.353 626H910.176M853.353 626V682.823M910.176 626H967M910.176 626V682.823M967 626V682.823H910.176M57.8235 682.823H114.647M114.647 682.823H171.471M171.471 682.823H228.294M228.294 682.823H285.118M285.118 682.823H341.941M341.941 682.823H398.765M398.765 682.823H455.588M455.588 682.823H512.412M512.412 682.823H569.235M569.235 682.823H626.059M626.059 682.823H682.882M682.882 682.823H739.706M739.706 682.823H796.529M796.529 682.823H853.353M853.353 682.823H910.176" stroke="url(#paint3_radial_46_20995)" stroke-opacity="0.25"/>
<defs>
<linearGradient id="paint0_linear_46_20995" x1="200.626" y1="113.86" x2="200.626" y2="171.98" gradientUnits="userSpaceOnUse">
<stop stop-color="#01000F" stop-opacity="0"/>
<stop offset="1" stop-color="#01000F"/>
</linearGradient>
<linearGradient id="paint1_linear_46_20995" x1="199.882" y1="454.801" x2="199.882" y2="513.081" gradientUnits="userSpaceOnUse">
<stop stop-color="#01000F" stop-opacity="0"/>
<stop offset="1" stop-color="#01000F"/>
</linearGradient>
<linearGradient id="paint2_linear_46_20995" x1="768.118" y1="170.683" x2="768.118" y2="228.964" gradientUnits="userSpaceOnUse">
<stop stop-color="#01000F" stop-opacity="0"/>
<stop offset="1" stop-color="#01000F"/>
</linearGradient>
<radialGradient id="paint3_radial_46_20995" cx="0" cy="0" r="1" gradientUnits="userSpaceOnUse" gradientTransform="translate(484 360.095) rotate(90) scale(322 483.729)">
<stop stop-color="#01000F"/>
<stop offset="1" stop-color="#01000F" stop-opacity="0"/>
</radialGradient>
</defs>
</svg>
